<svg width="31" height="23" viewBox="0 0 31 23" fill="none" xmlns="http://www.w3.org/2000/svg">
<path d="M0.66646 0.181818H3.81987L11.2346 18.2926H11.4903L18.9051 0.181818H22.0585V22H19.5869V5.4233H19.3738L12.5557 22H10.1693L3.35112 5.4233H3.13805V22H0.66646V0.181818ZM28.8474 22.1705C28.3218 22.1705 27.8708 21.9822 27.4944 21.6058C27.118 21.2294 26.9298 20.7784 26.9298 20.2528C26.9298 19.7273 27.118 19.2763 27.4944 18.8999C27.8708 18.5234 28.3218 18.3352 28.8474 18.3352C29.373 18.3352 29.824 18.5234 30.2004 18.8999C30.5768 19.2763 30.765 19.7273 30.765 20.2528C30.765 20.6009 30.6762 20.9205 30.4987 21.2116C30.3282 21.5028 30.0974 21.7372 29.8062 21.9148C29.5221 22.0852 29.2025 22.1705 28.8474 22.1705Z" fill="black"/>
</svg>
