<svg width="31" height="131" viewBox="0 0 31 131" fill="none" xmlns="http://www.w3.org/2000/svg">
<path d="M0.66646 0.181818H3.81987L11.2346 18.2926H11.4903L18.9051 0.181818H22.0585V22H19.5869V5.4233H19.3738L12.5557 22H10.1693L3.35112 5.4233H3.13805V22H0.66646V0.181818ZM28.8474 22.1705C28.3218 22.1705 27.8708 21.9822 27.4944 21.6058C27.118 21.2294 26.9298 20.7784 26.9298 20.2528C26.9298 19.7273 27.118 19.2763 27.4944 18.8999C27.8708 18.5234 28.3218 18.3352 28.8474 18.3352C29.373 18.3352 29.824 18.5234 30.2004 18.8999C30.5768 19.2763 30.765 19.7273 30.765 20.2528C30.765 20.6009 30.6762 20.9205 30.4987 21.2116C30.3282 21.5028 30.0974 21.7372 29.8062 21.9148C29.5221 22.0852 29.2025 22.1705 28.8474 22.1705ZM2.6733 36.1818H5.69886L11.75 46.3665H12.0057L18.0568 36.1818H21.0824L13.1989 49.0085V58H10.5568V49.0085L2.6733 36.1818ZM24.9656 58.1705C24.44 58.1705 23.989 57.9822 23.6126 57.6058C23.2362 57.2294 23.0479 56.7784 23.0479 56.2528C23.0479 55.7273 23.2362 55.2763 23.6126 54.8999C23.989 54.5234 24.44 54.3352 24.9656 54.3352C25.4911 54.3352 25.9421 54.5234 26.3185 54.8999C26.695 55.2763 26.8832 55.7273 26.8832 56.2528C26.8832 56.6009 26.7944 56.9205 26.6168 57.2116C26.4464 57.5028 26.2156 57.7372 25.9244 57.9148C25.6403 58.0852 25.3207 58.1705 24.9656 58.1705ZM0.66646 72.1818H3.81987L11.2346 90.2926H11.4903L18.9051 72.1818H22.0585V94H19.5869V77.4233H19.3738L12.5557 94H10.1693L3.35112 77.4233H3.13805V94H0.66646V72.1818ZM28.8474 94.1705C28.3218 94.1705 27.8708 93.9822 27.4944 93.6058C27.118 93.2294 26.9298 92.7784 26.9298 92.2528C26.9298 91.7273 27.118 91.2763 27.4944 90.8999C27.8708 90.5234 28.3218 90.3352 28.8474 90.3352C29.373 90.3352 29.824 90.5234 30.2004 90.8999C30.5768 91.2763 30.765 91.7273 30.765 92.2528C30.765 92.6009 30.6762 92.9205 30.4987 93.2116C30.3282 93.5028 30.0974 93.7372 29.8062 93.9148C29.5221 94.0852 29.2025 94.1705 28.8474 94.1705ZM14.7316 108.182H17.3737V123.778C17.3737 125.17 17.118 126.353 16.6066 127.326C16.0953 128.299 15.3744 129.038 14.444 129.542C13.5136 130.046 12.4163 130.298 11.1521 130.298C9.9589 130.298 8.89711 130.082 7.96671 129.648C7.03631 129.208 6.30478 128.583 5.77211 127.773C5.23944 126.964 4.9731 126.001 4.9731 124.886H7.57253C7.57253 125.504 7.72523 126.044 8.03063 126.506C8.34313 126.96 8.76926 127.315 9.30904 127.571C9.84881 127.827 10.4632 127.955 11.1521 127.955C11.912 127.955 12.5583 127.795 13.091 127.475C13.6237 127.156 14.0285 126.687 14.3055 126.069C14.5896 125.444 14.7316 124.68 14.7316 123.778V108.182ZM23.1345 130.17C22.6089 130.17 22.1579 129.982 21.7815 129.606C21.4051 129.229 21.2169 128.778 21.2169 128.253C21.2169 127.727 21.4051 127.276 21.7815 126.9C22.1579 126.523 22.6089 126.335 23.1345 126.335C23.6601 126.335 24.1111 126.523 24.4875 126.9C24.8639 127.276 25.0521 127.727 25.0521 128.253C25.0521 128.601 24.9633 128.92 24.7858 129.212C24.6153 129.503 24.3845 129.737 24.0933 129.915C23.8092 130.085 23.4896 130.17 23.1345 130.17Z" fill="black"/>
</svg>
