<svg width="33" height="131" viewBox="0 0 33 131" fill="none" xmlns="http://www.w3.org/2000/svg">
<path d="M0.202947 0.181818H5.89187L11.9004 14.8409H12.1561L18.1646 0.181818H23.8535V22H19.3791V7.79901H19.198L13.5517 21.8935H10.5048L4.85849 7.74574H4.67738V22H0.202947V0.181818ZM30.2216 22.277C29.5185 22.277 28.9148 22.0284 28.4105 21.5312C27.9134 21.027 27.6648 20.4233 27.6648 19.7202C27.6648 19.0241 27.9134 18.4276 28.4105 17.9304C28.9148 17.4332 29.5185 17.1847 30.2216 17.1847C30.9034 17.1847 31.5 17.4332 32.0114 17.9304C32.5227 18.4276 32.7784 19.0241 32.7784 19.7202C32.7784 20.1889 32.6577 20.6186 32.4162 21.0092C32.1818 21.3928 31.8729 21.7017 31.4893 21.9361C31.1058 22.1634 30.6832 22.277 30.2216 22.277ZM2.80637 36.1818H7.97328L12.9484 45.5781H13.1615L18.1366 36.1818H23.3035L15.3454 50.2869V58H10.7645V50.2869L2.80637 36.1818ZM26.3398 58.277C25.6366 58.277 25.0329 58.0284 24.5287 57.5312C24.0315 57.027 23.7829 56.4233 23.7829 55.7202C23.7829 55.0241 24.0315 54.4276 24.5287 53.9304C25.0329 53.4332 25.6366 53.1847 26.3398 53.1847C27.0216 53.1847 27.6182 53.4332 28.1295 53.9304C28.6409 54.4276 28.8966 55.0241 28.8966 55.7202C28.8966 56.1889 28.7758 56.6186 28.5344 57.0092C28.3 57.3928 27.991 57.7017 27.6075 57.9361C27.224 58.1634 26.8014 58.277 26.3398 58.277ZM0.202947 72.1818H5.89187L11.9004 86.8409H12.1561L18.1646 72.1818H23.8535V94H19.3791V79.799H19.198L13.5517 93.8935H10.5048L4.85849 79.7457H4.67738V94H0.202947V72.1818ZM30.2216 94.277C29.5185 94.277 28.9148 94.0284 28.4105 93.5312C27.9134 93.027 27.6648 92.4233 27.6648 91.7202C27.6648 91.0241 27.9134 90.4276 28.4105 89.9304C28.9148 89.4332 29.5185 89.1847 30.2216 89.1847C30.9034 89.1847 31.5 89.4332 32.0114 89.9304C32.5227 90.4276 32.7784 91.0241 32.7784 91.7202C32.7784 92.1889 32.6577 92.6186 32.4162 93.0092C32.1818 93.3928 31.8729 93.7017 31.4893 93.9361C31.1058 94.1634 30.6832 94.277 30.2216 94.277ZM14.6223 108.182H19.182V123.395C19.182 124.801 18.8659 126.023 18.2338 127.06C17.6088 128.097 16.7388 128.896 15.6238 129.457C14.5087 130.018 13.2125 130.298 11.7353 130.298C10.4213 130.298 9.22816 130.067 8.15572 129.606C7.09038 129.137 6.24521 128.427 5.62021 127.475C4.99521 126.516 4.68626 125.312 4.69336 123.864H9.28498C9.29918 124.439 9.41637 124.933 9.63654 125.344C9.86381 125.749 10.1728 126.062 10.5634 126.282C10.9611 126.495 11.4299 126.602 11.9696 126.602C12.5378 126.602 13.0172 126.481 13.4078 126.239C13.8056 125.991 14.1074 125.629 14.3134 125.153C14.5194 124.677 14.6223 124.091 14.6223 123.395V108.182ZM24.538 130.277C23.8349 130.277 23.2312 130.028 22.7269 129.531C22.2298 129.027 21.9812 128.423 21.9812 127.72C21.9812 127.024 22.2298 126.428 22.7269 125.93C23.2312 125.433 23.8349 125.185 24.538 125.185C25.2198 125.185 25.8164 125.433 26.3278 125.93C26.8391 126.428 27.0948 127.024 27.0948 127.72C27.0948 128.189 26.9741 128.619 26.7326 129.009C26.4982 129.393 26.1893 129.702 25.8058 129.936C25.4222 130.163 24.9996 130.277 24.538 130.277Z" fill="black"/>
</svg>
